{
  "title": "Skyfall 2012 TS XViD UNiQUE",
  "uid": 7818787,
  "size": 1565624097,
  "categoryP": "video",
  "categoryS": "movies",
  "magnet": "?xt=urn:btih:6d7882c59d6555283745f31e0492ac8d041132a1&amp;dn=Skyfall+2012+TS+XViD+UNiQUE&amp;tr=udp%3A%2F%2Ftracker.openbittorrent.com%3A80&amp;tr=udp%3A%2F%2Fopen.demonii.com%3A1337&amp;tr=udp%3A%2F%2Ftracker.coppersurfer.tk%3A6969&amp;tr=udp%3A%2F%2Fexodus.desync.com%3A6969",
  "seeders": 62,
  "leechers": 5,
  "uploader": "Acesn8s",
  "files": -1,
  "time": 1352744656,
  "description": "\nwhy be the same as everyone else when YOU can be UNiQUE          \n\n\n\nFormat                                   : AVI\nFormat/Info                              : Audio Video Interleave\nFile size                                : 1.43 GiB\nDuration                                 : 2h 17mn\nOverall bit rate                         : 1 487 Kbps\nWriting application                      : VirtualDubMod 1.5.10.2 (build 2540/release)\nWriting library                          : VirtualDub build 34807/release\n\nVideo\nID                                       : 0\nFormat                                   : MPEG-4 Visual\nFormat profile                           : Advanced Simple@L5\nFormat settings, BVOP                    : 2\nFormat settings, QPel                    : No\nFormat settings, GMC                     : No warppoints\nFormat settings, Matrix                  : Default (H.263)\nMuxing mode                              : Packed bitstream\nCodec ID                                 : XVID\nCodec ID/Hint                            : XviD\nDuration                                 : 2h 17mn\nBit rate                                 : 1 349 Kbps\nWidth                                    : 640 pixels\nHeight                                   : 272 pixels\nDisplay aspect ratio                     : 2.35:1\nFrame rate                               : 25.000 fps\nColor space                              : YUV\nChroma subsampling                       : 4:2:0\nBit depth                                : 8 bits\nScan type                                : Progressive\nCompression mode                         : Lossy\nBits/(Pixel*Frame)                       : 0.310\nStream size                              : 1.29 GiB (91%)\nWriting library                          : XviD 64\n\nAudio\nID                                       : 1\nFormat                                   : MPEG Audio\nFormat version                           : Version 1\nFormat profile                           : Layer 3\nCodec ID                                 : 55\nCodec ID/Hint                            : MP3\nDuration                                 : 2h 17mn\nBit rate mode                            : Constant\nBit rate                                 : 128 Kbps\nChannel(s)                               : 2 channels\nSampling rate                            : 48.0 KHz\nCompression mode                         : Lossy\nStream size                              : 126 MiB (9%)\nAlignment                                : Split accross interleaves\nInterleave, duration                     : 40 ms (1.00 video frame)\nInterleave, preload duration             : 500 ms\n\n\n\n\n &lt;a href=&quot;\nhttp://www.imdb.com/title/tt1074638/&quot; rel=&quot;nofollow&quot; target=&quot;_NEW&quot;&gt;\nhttp://www.imdb.com/title/tt1074638/&lt;/a&gt;\n\n\n\n\nRatings: 8.1/10 from 81,973 users   Metascore: 81/100\nReviews: 586 user | 269 critic | 43 from Metacritic.com\n\nBond's loyalty to M is tested as her past comes back to haunt her. As MI6 comes under attack, 007 must track down and destroy the threat, no matter how personal the cost.\n\nDirector:\nSam Mendes\nWriters:\nNeal Purvis, Robert Wade, and 2 more credits Â»\nStars:\nDaniel Craig, Javier Bardem and Naomie Harris | See full cast and crew\n\n\n\n\nSource Used\n\n\n\n\nVideo............iLG...........Thanks\n\n\nAudio..............Jiinxy...............Thanks bro\n\n\n\n\n\nCant say did loads to vid but sharpened it up ,rgb and contrast and for those on about missing minutes\n\n\nEnjoy\n &lt;a href=&quot;\nhttp://www.shotpix.com/images/22949177672118816547.png&quot; rel=&quot;nofollow&quot; target=&quot;_NEW&quot;&gt;\nhttp://www.shotpix.com/images/22949177672118816547.png&lt;/a&gt;\n &lt;a href=&quot;\nhttp://www.shotpix.com/images/30349874983160362746.png&quot; rel=&quot;nofollow&quot; target=&quot;_NEW&quot;&gt;\nhttp://www.shotpix.com/images/30349874983160362746.png&lt;/a&gt;\n &lt;a href=&quot;\nhttp://www.shotpix.com/images/91622989196341523699.png&quot; rel=&quot;nofollow&quot; target=&quot;_NEW&quot;&gt;\nhttp://www.shotpix.com/images/91622989196341523699.png&lt;/a&gt;\n &lt;a href=&quot;\nhttp://www.shotpix.com/images/42594152709395590951.png&quot; rel=&quot;nofollow&quot; target=&quot;_NEW&quot;&gt;\nhttp://www.shotpix.com/images/42594152709395590951.png&lt;/a&gt;",
  "parsed": {
    "xt": "urn:btih:6d7882c59d6555283745f31e0492ac8d041132a1",
    "dn": "Skyfall 2012 TS XViD UNiQUE",
    "tr": [
      "udp://exodus.desync.com:6969",
      "udp://open.demonii.com:1337",
      "udp://tracker.coppersurfer.tk:6969",
      "udp://tracker.openbittorrent.com:80"
    ],
    "infoHash": "6d7882c59d6555283745f31e0492ac8d041132a1",
    "infoHashBuffer": {
      "type": "Buffer",
      "data": [
        109,
        120,
        130,
        197,
        157,
        101,
        85,
        40,
        55,
        69,
        243,
        30,
        4,
        146,
        172,
        141,
        4,
        17,
        50,
        161
      ]
    },
    "name": "Skyfall 2012 TS XViD UNiQUE",
    "announce": [
      "udp://exodus.desync.com:6969",
      "udp://open.demonii.com:1337",
      "udp://tracker.coppersurfer.tk:6969",
      "udp://tracker.openbittorrent.com:80"
    ],
    "urlList": []
  },
  "previous": 1,
  "peers": 1,
  "last_updated": "2016-12-27T03:14:07.953Z"
}